# xmcd
#
# Track frame offsets: 
#        150
#        17975
#        33170
#        46152
#        63935
#        84510
#        100765
#        117495
#        131932
#        148670
#        166172
#
# Disc length: 2511 seconds
#
# Revision: 0
# Processed by: cddbd v1.5.1PL2 Copyright (c) Steve Scherf et al.
# Submitted via: ExactAudioCopy v0.95b3
#
DISCID=9009cd0b
DTITLE=Beth Black - Beth Black
DYEAR=1996
DGENRE=Country
TTITLE0=Here He Comes
TTITLE1=Do You Long For Me
TTITLE2=We Can Turn This Love Around
TTITLE3=One Hundred Miles
TTITLE4=Love Falls
TTITLE5=I'd Just As Soon Do Without
TTITLE6=Damn Your Eyes
TTITLE7=Son Of A Preacher Man
TTITLE8=Taste Of Your Kiss
TTITLE9=Sweet Slumber
TTITLE10=Please Don't Turn Me Away
EXTD=
EXTT0=
EXTT1=
EXTT2=
EXTT3=
EXTT4=
EXTT5=
EXTT6=
EXTT7=
EXTT8=
EXTT9=
EXTT10=
PLAYORDER=
